<svg xmlns="http://www.w3.org/2000/svg" viewBox="0 0 1200 800" role="img" aria-label="Relating hexagram visual guide">
  <defs>
    <linearGradient id="bg" x1="0" y1="0" x2="1" y2="1">
      <stop offset="0" stop-color="#172d25"/>
      <stop offset=".55" stop-color="#27463b"/>
      <stop offset="1" stop-color="#d7a75b"/>
    </linearGradient>
  </defs>
  <rect width="1200" height="800" fill="url(#bg)"/>
  <path d="M80 620 C240 430 390 520 555 350 C720 180 860 260 1110 120" fill="none" stroke="#fff5df" stroke-width="26" opacity=".28" stroke-linecap="round"/>
  <g transform="translate(150 170)">
    <rect width="310" height="420" rx="26" fill="#fff8e8"/>
    <text x="52" y="82" fill="#21372f" font-family="Georgia, serif" font-size="38" font-weight="700">Primary</text>
    <g transform="translate(65 145)" stroke="#21372f" stroke-width="22" stroke-linecap="round">
      <path d="M0 0 H180"/><path d="M0 55 H72 M108 55 H180"/><path d="M0 110 H180"/><path d="M0 165 H72 M108 165 H180"/><path d="M0 220 H180"/><path d="M0 275 H72 M108 275 H180"/>
    </g>
  </g>
  <g transform="translate(740 170)">
    <rect width="310" height="420" rx="26" fill="#fff8e8"/>
    <text x="52" y="82" fill="#21372f" font-family="Georgia, serif" font-size="38" font-weight="700">Relating</text>
    <g transform="translate(65 145)" stroke="#b98547" stroke-width="22" stroke-linecap="round">
      <path d="M0 0 H72 M108 0 H180"/><path d="M0 55 H180"/><path d="M0 110 H72 M108 110 H180"/><path d="M0 165 H180"/><path d="M0 220 H72 M108 220 H180"/><path d="M0 275 H180"/>
    </g>
  </g>
  <g fill="none" stroke="#f8e8bf" stroke-width="18" stroke-linecap="round" stroke-linejoin="round">
    <path d="M520 370 H680"/>
    <path d="M650 335 L690 370 L650 405"/>
  </g>
</svg>
