<svg xmlns="http://www.w3.org/2000/svg" viewBox="0 0 1200 800" role="img" aria-label="Changing lines visual guide">
  <defs>
    <linearGradient id="bg" x1="0" y1="0" x2="1" y2="1">
      <stop offset="0" stop-color="#1f342d"/>
      <stop offset="1" stop-color="#8d6237"/>
    </linearGradient>
    <linearGradient id="paper" x1="0" y1="0" x2="1" y2="1">
      <stop offset="0" stop-color="#fff8e8"/>
      <stop offset="1" stop-color="#ecd8b6"/>
    </linearGradient>
  </defs>
  <rect width="1200" height="800" fill="url(#bg)"/>
  <circle cx="1010" cy="120" r="180" fill="#d7a75b" opacity=".18"/>
  <circle cx="170" cy="690" r="220" fill="#fff8e8" opacity=".09"/>
  <g transform="translate(250 135)">
    <rect x="0" y="0" width="700" height="530" rx="34" fill="url(#paper)" opacity=".96"/>
    <text x="70" y="92" fill="#21372f" font-family="Georgia, serif" font-size="52" font-weight="700">Changing Lines</text>
    <text x="72" y="138" fill="#7d2a1d" font-family="Inter, Arial, sans-serif" font-size="22">stable pattern to active movement</text>
    <g transform="translate(92 205)" fill="none" stroke-linecap="round" stroke-width="26">
      <path d="M0 0 H210 M310 0 H520" stroke="#21372f"/>
      <path d="M0 58 H520" stroke="#b98547"/>
      <path d="M0 116 H210 M310 116 H520" stroke="#21372f"/>
      <path d="M0 174 H520" stroke="#21372f"/>
      <path d="M0 232 H210 M310 232 H520" stroke="#b98547"/>
      <path d="M0 290 H520" stroke="#21372f"/>
    </g>
    <g transform="translate(720 282)">
      <path d="M0 0 C80 20 112 62 122 130" fill="none" stroke="#f5e6c6" stroke-width="20" stroke-linecap="round" opacity=".75"/>
      <path d="M96 114 L126 144 L146 104" fill="none" stroke="#f5e6c6" stroke-width="18" stroke-linecap="round" stroke-linejoin="round" opacity=".75"/>
    </g>
  </g>
</svg>
